<svg width="750" height="843" viewBox="0 0 750 843" fill="none" xmlns="http://www.w3.org/2000/svg">
<path fill-rule="evenodd" clip-rule="evenodd" d="M746.667 249.551C746.661 235.516 743.656 223.114 737.58 212.473C731.611 202.004 722.673 193.231 710.683 186.295C668.313 161.888 625.925 137.513 583.538 113.139L583.409 113.064L583.402 113.061C526.826 80.5269 470.249 47.9931 413.715 15.3834C387.042 2.46942e-05 361.181 0.563754 334.706 16.168C310.992 30.1375 230.083 76.6043 156.613 118.799L156.611 118.8L156.608 118.802C108.033 146.699 62.7105 172.728 39.3198 186.263C15.1166 200.263 3.33928 221.685 3.33347 249.525C3.31456 306.85 3.31456 364.174 3.31456 421.499C3.31456 478.823 3.31456 536.147 3.29565 593.472C3.29565 607.199 6.17817 619.363 11.9868 629.844C17.9584 640.628 27.0218 649.641 39.2878 656.734C62.5481 670.193 107.498 696.005 155.768 723.723L155.855 723.772C229.528 766.077 310.907 812.808 334.694 826.829C361.181 842.442 387.042 843 413.723 827.614C471.153 794.487 528.626 761.44 586.101 728.392C627.644 704.505 669.187 680.618 710.715 656.7C722.981 649.609 732.045 640.59 738.016 629.815C743.816 619.331 746.705 607.17 746.705 593.44C746.705 593.44 746.705 364.203 746.667 249.551ZM579.124 363V391.751H607.874V363H622.249V391.751H651V406.126H622.249V434.874H651V449.249H622.249V478H607.874V449.249H579.124V478H564.748V449.249H536V434.874H564.748V406.126H536V391.751H564.748V363H579.124ZM607.874 406.124H579.124V434.874H607.874V406.124ZM599.234 293.928C555.091 217.805 472.68 166.592 378.287 166.592L378.284 166.59C237.361 166.59 123.125 280.718 123.125 421.497C123.125 467.684 135.423 510.994 156.919 548.353C200.951 624.878 283.596 676.407 378.287 676.407L381.129 676.391C474.423 675.374 555.707 624.32 599.366 548.841L488.474 484.664C488.652 484.356 488.828 484.047 489.002 483.738L488.473 484.663L488.474 484.664C466.55 522.758 425.428 548.43 378.287 548.43C331.058 548.43 289.886 522.669 267.986 484.473C256.983 465.306 251.205 443.592 251.228 421.497C251.228 351.398 308.116 294.567 378.284 294.567L379.735 294.575C425.752 295.09 465.863 320.068 487.743 357.078L598.804 293.196L599.234 293.928Z" fill="black"/>
</svg>
