<svg width="471" height="471" viewBox="0 0 470 470" fill="none" xmlns="http://www.w3.org/2000/svg">
    <path
        d="M426.981 0H43.7009C34.5199 0 27.6319 7.769 28.4419 16.949L63.4499 409.254C64.2609 418.427 72.1949 428.028 81.0939 430.507L219.1 468.842C227.987 471.305 242.513 471.321 251.413 468.874L389.59 430.593C398.491 428.121 406.425 418.607 407.235 409.418L442.258 16.949C443.068 7.769 436.209 0 426.981 0ZM360.51 141.611C360.504 141.671 360.457 141.718 360.398 141.728C360.338 141.738 360.28 141.707 360.254 141.651L252.13 185.96C250.59 186.591 249.712 188.224 250.032 189.857C250.354 191.49 251.786 192.668 253.451 192.668H337.554C342.028 192.668 346.29 194.568 349.282 197.895C352.273 201.222 353.711 205.663 353.236 210.111L340.095 333.384C339.45 339.432 335.386 344.57 329.648 346.589L240.379 377.999C237.017 379.183 233.352 379.192 229.982 378.024L141.13 347.246C135.357 345.246 131.259 340.093 130.61 334.018L124.653 278.19C124.34 275.259 125.287 272.333 127.257 270.142C129.228 267.95 132.036 266.698 134.984 266.698H159.709C165.022 266.698 169.478 270.705 170.04 275.987L173.695 310.303L235.216 331.688L297.019 310.108L304.578 238.938H129.835C124.538 238.938 120.089 234.953 119.508 229.688L116.181 199.524C115.673 194.923 118.269 190.542 122.547 188.779L234.384 142.67C235.653 142.147 236.374 140.802 236.108 139.456C235.841 138.111 234.662 137.142 233.291 137.142H115.542C111.997 137.142 109.024 134.465 108.654 130.941L105.248 98.52C105.043 96.569 105.676 94.622 106.989 93.163C108.302 91.705 110.173 90.872 112.135 90.872H358.514C360.487 90.872 362.366 91.714 363.68 93.185C364.994 94.657 365.618 96.619 365.395 98.579L360.51 141.611Z"
        fill="black" />
</svg>