<svg width="24" height="24" viewBox="0 0 24 24" fill="none" xmlns="http://www.w3.org/2000/svg">
<path d="M3.5 15.5L16.9 1.90001C17.5 1.30001 18.4 1.30001 19 1.90001L22 4.90001C22.6 5.50001 22.6 6.40001 22 7.00001L8.5 20.5L1.5 22.5L3.5 15.5Z" stroke="#303C42" stroke-linecap="round" stroke-linejoin="round"/>
<path d="M19.4999 9.6L14.3999 4.5" stroke="#303C42" stroke-linecap="round" stroke-linejoin="round"/>
<path d="M8.5 20.5V18.5L6.5 17.5L5.5 15.5H3.5" stroke="#303C42" stroke-linecap="round" stroke-linejoin="round"/>
<path d="M5.5001 21.4L2.6001 18.5" stroke="#303C42" stroke-linecap="round" stroke-linejoin="round"/>
<path d="M17 7L6.5 17.5" stroke="#303C42" stroke-linecap="round" stroke-linejoin="round"/>
<path d="M7 12L1.5 6.5L6.5 1.5L12 7" stroke="#303C42" stroke-linecap="round" stroke-linejoin="round"/>
<path d="M17 12L22.5 17.5L17.5 22.5L12 17" stroke="#303C42" stroke-linecap="round" stroke-linejoin="round"/>
<path d="M15.5 20.5L17.5 18.5" stroke="#303C42" stroke-linecap="round" stroke-linejoin="round"/>
<path d="M13.5 18.5L15.5 16.5" stroke="#303C42" stroke-linecap="round" stroke-linejoin="round"/>
<path d="M5.5 10.5L7.5 8.5" stroke="#303C42" stroke-linecap="round" stroke-linejoin="round"/>
<path d="M3.5 8.5L5.5 6.5" stroke="#303C42" stroke-linecap="round" stroke-linejoin="round"/>
</svg>
