<svg width="2500" height="605" viewBox="0 0 2500 605" fill="none" xmlns="http://www.w3.org/2000/svg">
<g clip-path="url(#clip0_2_55)">
<path d="M920.334 1.81748e-06C1007.18 -0.375684 1096.23 24.5415 1163.73 80.6846C1198.32 108.68 1226.25 143.805 1249.98 181.202C1292.67 112.193 1355.03 53.5571 1431.93 25.2929C1525.64 -9.88492 1631.55 -7.45516 1725.1 27.025C1806.81 56.8554 1878.25 108.841 1943.05 166.014C1993.74 210.76 2040.64 259.721 2092.84 302.793C2120.35 325.109 2149.91 346.021 2183.74 357.584C2228.7 372.934 2281.88 358.453 2314.03 323.812C2343.81 291.39 2341.97 235.35 2309.16 205.739C2288.31 187.74 2252.64 191.361 2237.88 215.351C2224.97 234.379 2232.21 258.101 2242.32 276.529C2215.46 256.915 2188.55 229.568 2188.65 193.903C2183.09 152.67 2213.68 116.297 2250.31 101.869C2321.81 73.2782 2411.46 97.9271 2456.59 160.881C2499.98 219.625 2503.44 296.845 2495.88 366.825C2486.74 433.297 2449.56 495.339 2394.44 533.815C2317.06 589.046 2218.97 606.171 2125.64 604.985C2035.94 602.551 1947.15 582.288 1864.04 548.779C1725.05 492.904 1594.97 415.679 1451.44 371.046C1403.83 352.564 1353.2 342.567 1302.29 339.483C1261.76 339.215 1223.34 337.322 1185.07 339.917C1138.38 344.406 1091.96 353.969 1048.25 371.094C902.286 416.494 770.264 495.661 628.626 551.648C509.031 598.174 376.526 619.793 249.589 593.959C178.579 579.585 107.892 548.189 59.9601 492.255C18.9421 444.699 -0.725271 381.043 1.2117 318.679C-1.05705 259.828 11.8578 197.303 50.768 151.474C86.9705 108.032 145.285 85.9832 201.272 90.8476C237.313 92.5211 273.847 108.246 296.11 137.267C313.621 160.232 314.699 191.687 307.025 218.542C297.676 242.698 278.385 261.56 257.419 276.041C268.119 257.989 274.603 234.159 261.957 215.297C246.393 190.17 208.078 187.633 187.815 208.271C162.849 233.945 157.604 275.88 174.359 307.33C192.514 340.298 230.077 359.102 266.441 362.937C321.457 367.694 369.174 333.594 409.543 300.524C493.086 228.592 568.306 146.293 660.989 85.4416C737.404 34.2118 827.432 -0.429353 920.329 0.00488085L920.334 1.81748e-06Z" fill="black"/>
</g>
<defs>
<clipPath id="clip0_2_55">
<rect width="2500" height="605" fill="white"/>
</clipPath>
</defs>
</svg>
