<svg width="2500" height="2500" viewBox="0 0 2500 2500" fill="none" xmlns="http://www.w3.org/2000/svg">
<path fill-rule="evenodd" clip-rule="evenodd" d="M2500 0H0V2500H2500V0ZM1982.41 1604.56C2202.71 1693.92 2277.09 1789.69 2295.39 1903.75C2312.98 2001.9 2291.11 2065.59 2287.79 2075.1C2206.51 2353.14 1753.33 2362.17 1572.25 2178.47C1566.75 2172.25 1561.54 2166.46 1556.59 2160.96C1527.11 2128.16 1506.7 2105.47 1487.17 2062.74C1583.39 2007.38 1583.42 2007.37 1676.98 1953.22L1677.04 1953.19C1727.9 2031.37 1774.95 2074.38 1859.55 2091.97C1974.34 2105.99 2089.83 2066.54 2063.93 1944.63C2048.5 1886.9 1971.96 1854.5 1882.71 1816.71C1818.02 1789.32 1746.64 1759.1 1687.03 1714.36C1543.01 1617.63 1509.27 1382.61 1627.61 1248.34C1667.06 1198.67 1734.32 1161.6 1804.9 1143.78C1817.07 1142.24 1829.31 1140.64 1841.54 1139.05C1853.9 1137.44 1866.26 1135.82 1878.56 1134.27C2019.96 1131.42 2108.37 1168.73 2173.24 1241.21C2191.3 1259.51 2206.04 1279.23 2233.6 1322.01C2218.06 1331.91 2205.73 1339.76 2195.01 1346.58C2153.76 1372.81 2136.24 1383.95 2050.62 1439.4C2027.57 1389.74 1989.31 1358.6 1948.91 1345.06C1886.17 1326.05 1807.03 1346.72 1790.64 1413.02C1784.93 1433.46 1786.12 1452.47 1795.15 1486.22C1815.73 1533.15 1875.55 1558.6 1938.17 1585.24C1952.92 1591.52 1967.83 1597.86 1982.41 1604.56ZM1125.24 1149H1359.08C1359.08 1220.74 1359.21 1292.41 1359.34 1364.02C1359.61 1507.08 1359.87 1649.93 1359.08 1792.78C1359.15 1812.17 1359.46 1831.29 1359.76 1850.12C1361.51 1958.82 1363.1 2057.5 1317.73 2141.16C1280.89 2216.02 1210.55 2265.21 1129.04 2288.97C1003.8 2317.73 884.031 2301.33 794.915 2247.86C735.266 2211.26 688.691 2154.94 657.082 2090.07C688.761 2070.73 720.381 2051.33 752.001 2031.93C783.714 2012.47 815.426 1993.02 847.196 1973.62C848.68 1974.26 852.799 1981.49 858.383 1991.29C859.069 1992.49 859.778 1993.73 860.506 1995.01C884.746 2035.64 905.659 2064.4 946.771 2084.6C987.17 2098.38 1075.81 2107.17 1110.03 2036.12C1126.71 2007.31 1125.85 1926.46 1124.82 1829.67C1124.56 1805.13 1124.29 1779.57 1124.29 1753.56C1124.29 1652.57 1124.53 1551.93 1124.76 1451.28C1125 1350.64 1125.24 1250 1125.24 1149Z" fill="black"/>
</svg>
