<svg width="72" height="154" viewBox="0 0 72 154" fill="none" xmlns="http://www.w3.org/2000/svg">
<path fill-rule="evenodd" clip-rule="evenodd" d="M35.9993 0.247584V0C37.013 1.51343 39.5979 5.29614 44.0003 11.2466C56.0589 27.5493 71.5003 48.7466 71.5003 72.7466C71.5003 72.9315 71.522 73.2275 71.5515 73.6296L71.555 73.677C71.8518 77.6882 72.8958 91.812 62.5003 111.247C51.0003 132.747 39.9944 135.247 39.9944 135.247L37.9944 153.747L35.9997 153.747L35.9993 153.747L33.99 153.747L31.9749 135.277C31.9749 135.277 20.8861 132.78 9.29927 111.315C-1.1745 91.9111 -0.122471 77.8099 0.176304 73.8052C0.208057 73.3796 0.231304 73.068 0.231304 72.8762C0.231304 48.9146 15.7893 27.7513 27.939 11.4746C32.3722 5.53562 34.977 1.75969 35.9993 0.247584ZM36.2 132L39 128.302L36.2 48L33 128.302L36.2 132Z" fill="black"/>
</svg>
