<svg width="519" height="488" viewBox="0 0 519 488" fill="none" xmlns="http://www.w3.org/2000/svg">
<path d="M294.823 243.802C294.823 248.592 293.878 253.336 292.043 257.761C290.208 262.187 287.519 266.208 284.128 269.596C280.738 272.983 276.713 275.67 272.283 277.503C267.853 279.336 263.105 280.28 258.31 280.28C253.515 280.28 248.767 279.336 244.337 277.503C239.907 275.67 235.881 272.983 232.491 269.596C229.1 266.208 226.411 262.187 224.576 257.761C222.741 253.336 221.796 248.592 221.796 243.802C221.796 234.127 225.643 224.849 232.491 218.008C239.338 211.167 248.626 207.324 258.31 207.324C267.993 207.324 277.281 211.167 284.128 218.008C290.976 224.849 294.823 234.127 294.823 243.802Z" fill="#212121"/>
<path d="M258.309 377.941C286.976 405.787 315.231 422.257 338.006 422.257C345.471 422.257 352.538 420.686 358.415 417.164C378.824 405.391 386.288 375.973 379.221 334.005C378.045 326.548 376.473 319.106 374.504 311.252C382.35 308.904 389.418 306.54 396.485 304.192C436.143 288.896 458.124 267.714 458.124 244.579C458.124 221.049 436.143 199.866 396.485 184.967C389.418 182.222 382.35 179.874 374.504 177.906C376.473 170.068 378.045 162.611 379.221 155.153C385.892 112.408 378.442 82.594 358.018 70.821C352.126 67.2982 345.058 65.7275 337.609 65.7275C315.231 65.7275 286.564 82.1975 257.912 110.044C229.642 82.1975 201.372 65.7275 178.612 65.7275C171.148 65.7275 164.08 67.2982 158.203 70.821C137.794 82.594 130.33 112.011 137.397 153.979C138.573 161.436 140.145 168.878 142.114 176.732C134.268 179.081 127.201 181.444 120.133 183.793C80.4753 199.089 58.4941 220.271 58.4941 243.405C58.4941 266.936 80.4753 288.118 120.133 303.017C127.201 305.762 134.268 308.111 142.114 310.078C140.2 317.588 138.626 325.18 137.397 332.831C130.727 374.799 138.176 404.613 158.203 415.989C164.095 419.527 171.163 421.083 178.612 421.083C201.387 421.861 229.657 405.391 258.309 377.941ZM236.313 324.993C243.38 325.389 250.845 325.389 258.294 325.389C265.743 325.389 273.207 325.389 280.275 324.993C273.353 334.082 266.019 342.85 258.294 351.268C250.565 342.854 243.23 334.086 236.313 324.993ZM187.634 284.595C191.557 291.26 195.098 297.543 199.418 303.81C187.827 302.325 176.302 300.361 164.874 297.924C168.415 287.34 172.338 276.345 177.04 265.365C180.184 271.633 183.711 278.312 187.634 284.58V284.595ZM164.859 190.061C175.849 187.712 187.237 185.745 199.403 184.174C195.48 190.457 191.557 196.725 187.618 203.389C183.68 210.053 180.154 216.336 177.025 223.001C172.233 212.301 168.168 201.291 164.859 190.045V190.061ZM186.458 243.802C191.557 233.218 197.052 222.619 203.341 212.036C209.233 201.834 215.904 191.647 222.574 181.444C246.371 179.864 270.247 179.864 294.044 181.444C301.111 191.647 307.385 201.834 313.277 212.036C319.566 222.619 325.062 233.218 330.16 243.802C325 254.632 319.367 265.23 313.277 275.567C307.385 285.77 300.715 295.957 294.044 306.159C270.247 307.739 246.371 307.739 222.574 306.159C215.745 296.231 209.328 286.025 203.341 275.567C197.255 265.229 191.622 254.63 186.458 243.802ZM339.975 222.619L329.382 203.008C325.459 196.344 321.917 190.061 317.597 183.793C329.763 185.364 341.151 187.331 352.141 189.679C348.615 200.659 344.677 211.639 339.975 222.635V222.619ZM339.975 264.984C344.692 275.964 348.615 286.944 352.141 297.543C341.151 299.891 329.763 301.858 317.597 303.429C321.52 297.146 325.443 290.878 329.382 284.214C332.923 278.328 336.449 271.663 339.975 264.999V264.984ZM348.997 401.09C345.852 403.057 341.929 403.835 337.609 403.835C318.376 403.835 294.425 388.143 270.872 364.612C282.873 351.616 294.019 337.857 304.241 323.422C321.959 321.977 339.546 319.224 356.858 315.187C358.827 322.248 360.003 329.308 361.178 336.369C366.673 369.706 362.353 393.633 349.012 401.09H348.997ZM369.421 194.376C413.399 206.927 439.7 226.142 439.7 243.802C439.7 259.097 421.641 274.393 389.845 286.563C383.556 288.911 376.504 291.275 369.436 293.227C364.094 276.356 357.67 259.847 350.203 243.802C358.049 226.935 364.735 210.465 369.436 194.376H369.421ZM338.006 83.7682C342.326 83.7682 345.852 84.546 349.394 86.5132C362.353 93.9705 367.055 117.501 361.56 151.234C360.384 157.898 358.812 164.959 357.24 172.416C339.858 168.748 322.294 166 304.622 164.181C294.52 149.657 283.367 135.89 271.254 122.991C294.807 99.8417 318.757 83.7682 337.991 83.7682H338.006ZM280.29 162.611C273.223 162.214 265.758 162.214 258.309 162.214C250.86 162.214 243.396 162.214 236.328 162.611C243.396 153.201 250.86 144.57 258.309 136.335C265.774 144.57 273.223 153.598 280.29 162.611ZM167.606 86.5132C170.751 84.546 174.674 83.7682 178.994 83.7682C198.227 83.7682 222.178 99.4605 245.731 122.991C233.727 135.984 222.58 149.744 212.362 164.181C194.644 165.627 177.057 168.379 159.745 172.416C157.776 165.356 156.6 158.295 155.425 151.234C149.93 117.898 154.25 94.367 167.591 86.5132H167.606ZM147.197 293.227C103.22 280.676 76.9186 261.461 76.9186 243.802C76.9186 228.506 94.9768 213.21 126.773 201.056C133.062 198.707 140.115 196.344 147.182 194.392C152.524 211.262 158.948 227.772 166.416 243.817C158.57 260.683 151.884 277.55 147.182 293.242L147.197 293.227ZM155.44 336.369C156.616 329.705 158.188 322.644 159.76 315.187C176.246 318.725 193.923 321.47 212.378 323.422C222.48 337.947 233.633 351.714 245.746 364.612C222.193 387.746 198.243 403.835 179.009 403.835C174.689 403.835 171.163 403.057 167.622 401.09C154.265 393.633 149.96 369.706 155.456 336.369H155.44Z" fill="#212121"/>
</svg>
