<svg width="1508" height="1131" viewBox="0 0 1508 1131" fill="none" xmlns="http://www.w3.org/2000/svg">
<g clip-path="url(#clip0_2_53)">
<path d="M1297.7 649.736C1244.98 650.033 1199.33 662.695 1161.04 681.548C1146.9 653.568 1132.77 629.119 1130.41 610.861C1127.76 589.654 1124.52 576.692 1127.76 551.365C1131 526.033 1145.73 490.1 1145.73 487.155C1145.43 484.504 1142.48 471.545 1112.15 471.25C1081.82 470.955 1055.6 477.141 1052.65 485.093C1049.71 493.045 1043.82 511.306 1039.99 530.156C1034.69 557.842 979.316 655.921 947.802 707.464C937.493 687.436 928.657 669.764 926.887 655.624C924.239 634.42 920.996 621.458 924.239 596.131C927.479 570.799 942.206 534.869 942.206 531.923C941.911 529.273 938.966 516.313 908.632 516.019C878.292 515.724 852.082 521.909 849.137 529.862C846.191 537.814 842.951 556.664 836.472 574.925C830.284 593.186 756.651 756.945 737.506 799.652C727.787 821.448 719.248 838.825 713.06 850.606C706.875 862.388 712.766 851.49 712.177 852.668C706.875 862.682 703.93 868.278 703.93 868.278V868.576C699.806 875.939 695.388 883.005 693.324 883.005C691.851 883.005 688.906 863.271 693.913 836.177C704.81 779.33 731.318 690.679 731.027 687.439C731.027 685.966 736.031 670.353 713.941 662.404C692.44 654.451 684.785 667.705 683.015 667.705C681.248 667.705 679.775 672.418 679.775 672.418C679.775 672.418 703.632 572.575 634.123 572.575C590.532 572.575 530.448 619.994 500.7 663.29C481.85 673.599 441.794 695.391 399.382 718.662C383.182 727.498 366.394 736.923 350.489 745.464L347.252 741.924C263.016 652.092 107.209 588.473 113.689 467.716C116.045 423.83 131.361 308.08 412.936 167.883C643.554 53.0156 828.225 84.5305 860.326 154.629C905.978 254.77 761.658 440.913 521.912 467.716C430.608 478.024 382.596 442.68 370.523 429.427C357.858 415.584 356.091 414.995 351.379 417.645C343.721 421.769 348.434 434.139 351.379 441.502C358.448 460.058 387.901 493.045 437.971 509.539C481.853 523.971 589.066 531.923 718.659 481.853C863.863 425.598 977.258 269.496 943.976 139.019C910.105 6.18518 689.795 -37.4055 481.562 36.5219C357.561 80.7016 223.255 149.622 126.649 240.043C11.7813 347.252 -6.47959 440.913 1.17822 479.791C27.9835 618.516 219.131 708.937 295.709 775.795C291.881 777.854 288.346 779.916 285.106 781.686C246.817 800.533 101.024 876.82 64.5024 957.518C23.2681 1048.82 70.9821 1114.51 102.792 1123.34C201.165 1150.73 301.895 1101.55 356.383 1020.55C410.574 939.555 404.097 834.407 379.062 786.398L378.175 784.631L408.217 766.959C427.659 755.473 446.804 744.87 463.589 735.736C454.167 761.36 447.39 791.697 443.859 835.877C439.735 887.717 460.941 954.867 488.922 981.375C501.292 992.859 516.019 993.156 525.149 993.156C557.548 993.156 572.274 966.351 588.474 934.25C608.502 895.078 626.174 849.72 626.174 849.72C626.174 849.72 604.084 972.539 664.463 972.539C686.552 972.539 708.642 943.97 718.656 929.243V929.538C718.656 929.538 719.245 928.654 720.424 926.592C721.659 924.765 722.838 922.9 723.958 920.999V920.41C732.794 905.095 752.527 870.045 781.981 812.023C819.972 737.212 856.497 643.551 856.497 643.551C856.497 643.551 860.031 666.524 870.929 704.224C877.406 726.612 891.543 751.055 902.441 774.912C893.605 787.282 888.303 794.354 888.303 794.354L888.598 794.648C881.532 804.073 873.577 814.09 865.333 824.101C835.291 860.034 799.358 900.977 794.645 912.758C789.049 926.598 790.227 936.907 801.125 945.157C809.077 951.047 823.215 952.223 838.236 951.047C865.333 949.277 884.183 942.506 893.608 938.38C908.334 933.078 925.123 925.126 941.322 913.344C970.775 891.552 988.742 860.626 986.974 819.392C986.091 796.713 978.727 774.329 969.597 753.122C972.248 749.293 974.901 745.461 977.549 741.341C1024.09 673.301 1060.02 598.493 1060.02 598.493C1060.02 598.493 1063.55 621.467 1074.45 659.167C1080.04 678.311 1091.24 699.226 1101.25 719.843C1057.66 755.482 1030.27 796.716 1020.85 823.813C1003.47 873.883 1017.02 896.562 1042.64 901.864C1054.12 904.22 1070.62 898.918 1082.99 893.617C1098.3 888.61 1116.86 880.065 1133.95 867.403C1163.4 845.608 1191.67 815.271 1190.2 774.332C1189.32 755.482 1184.31 736.926 1177.54 719.254C1214.65 703.939 1262.65 695.103 1323.62 702.466C1454.69 717.781 1480.61 799.661 1475.6 833.827C1470.6 867.995 1443.21 886.842 1434.07 892.733C1424.94 898.329 1422 900.394 1422.88 904.514C1424.06 910.702 1428.18 910.405 1436.13 909.23C1447.03 907.46 1505.05 881.249 1507.41 818.223C1510.95 737.215 1434.07 648.855 1297.7 649.736ZM286.874 990.509C243.577 1037.93 182.609 1055.89 156.691 1040.58C128.71 1024.38 139.605 954.576 192.918 904.211C225.316 873.58 267.434 845.305 295.12 827.927C301.306 824.099 310.731 818.505 321.923 811.728C323.69 810.553 324.868 809.961 324.868 809.961C326.93 808.783 329.286 807.31 331.642 805.838C351.376 877.703 332.526 940.733 286.874 990.509ZM603.495 775.206C588.474 812.023 556.664 906.567 537.52 901.266C521.023 896.848 511.012 825.277 534.277 754.589C546.058 718.948 571.093 676.538 585.82 660.042C609.68 633.534 635.596 624.698 642.078 635.595C649.736 649.736 612.92 752.233 603.495 775.206ZM864.744 900.088C858.264 903.33 852.374 905.684 849.723 903.919C847.661 902.741 852.371 898.323 852.371 898.323C852.371 898.323 885.063 863.274 898.023 847.075C905.386 837.653 914.222 826.755 923.647 814.382V817.916C923.65 860.326 883.005 888.601 864.744 900.088ZM1066.2 854.141C1061.49 850.606 1062.08 839.709 1077.98 805.543C1084.17 791.995 1098.3 769.316 1122.75 747.815C1125.7 756.651 1127.47 765.189 1127.17 773.145C1126.88 826.16 1089.18 845.894 1066.2 854.141Z" fill="black"/>
</g>
<defs>
<clipPath id="clip0_2_53">
<rect width="1508" height="1131" fill="white"/>
</clipPath>
</defs>
</svg>
